<svg xmlns="http://www.w3.org/2000/svg" width="144" height="144" viewBox="0 0 144 144">
  <g id="Union_1" data-name="Union 1" transform="translate(-406 -680)" fill="#3190ef">
    <path d="M 477.9999084472656 822.9966430664062 L 461.1047058105469 793.5861206054688 L 460.9127502441406 793.2518920898438 L 460.5407104492188 793.3524780273438 L 427.7984924316406 802.2018432617188 L 436.6478576660156 769.4595947265625 L 436.7484436035156 769.0875854492188 L 436.4142456054688 768.8956298828125 L 407.003662109375 752.0004272460938 L 436.4142456054688 735.1051635742188 L 436.7484436035156 734.9132080078125 L 436.6478881835938 734.5411987304688 L 427.7984924316406 701.798095703125 L 460.540771484375 710.6474609375 L 460.9127807617188 710.748046875 L 461.1047668457031 710.4138793945312 L 477.9999084472656 681.004150390625 L 494.8950805664062 710.4138793945312 L 495.0870361328125 710.748046875 L 495.4590759277344 710.6474609375 L 528.2022094726562 701.798095703125 L 519.3527221679688 734.5416870117188 L 519.2521362304688 734.9136962890625 L 519.5863647460938 735.1056518554688 L 548.9961547851562 752.0004272460938 L 519.5863647460938 768.8952026367188 L 519.252197265625 769.087158203125 L 519.352783203125 769.4591674804688 L 528.2022094726562 802.2018432617188 L 495.4591064453125 793.3524780273438 L 495.0870971679688 793.2518920898438 L 494.8951110839844 793.5861206054688 L 477.9999084472656 822.9966430664062 Z" stroke="none"/>
    <path d="M 477.9999084472656 821.992919921875 L 494.8454895019531 792.668701171875 L 527.492431640625 801.4921264648438 L 518.6690063476562 768.8455810546875 L 547.9923706054688 752.0004272460938 L 518.6689453125 735.1553344726562 L 527.4924926757812 702.5078735351562 L 494.845458984375 711.3312377929688 L 477.9999084472656 682.0079345703125 L 461.1543579101562 711.3312377929688 L 428.5082397460938 702.5078735351562 L 437.3316650390625 735.15478515625 L 408.0074462890625 752.0004272460938 L 437.3316650390625 768.8460083007812 L 428.5082702636719 801.4920654296875 L 461.1543273925781 792.668701171875 L 477.9999084472656 821.992919921875 M 477.9999084472656 824.0004272460938 L 460.6711730957031 793.8351440429688 L 427.0887145996094 802.91162109375 L 436.1651916503906 769.3291625976562 L 405.9999084472656 752.0004272460938 L 436.1651916503906 734.671630859375 L 427.0887145996094 701.0883178710938 L 460.6712036132812 710.164794921875 L 477.9999084472656 680.0004272460938 L 495.32861328125 710.164794921875 L 528.9119873046875 701.0883178710938 L 519.8353881835938 734.672119140625 L 549.9999389648438 752.0004272460938 L 519.83544921875 769.3287353515625 L 528.9119873046875 802.91162109375 L 495.3286743164062 793.8351440429688 L 477.9999084472656 824.0004272460938 Z" stroke="none" fill="#000"/>
  </g>
</svg>
